HIERARCHY
ROOT root
{
	OFFSET	0	13.1	24.9
	CHANNELS 6  Xposition Yposition Zposition Xrotation Yrotation Zrotation
	JOINT spine_1
	{
		OFFSET	0	9.99999	0
		CHANNELS 3  Xrotation Yrotation Zrotation
		JOINT spine_2
		{
			OFFSET	0	112	-10
			CHANNELS 3  Xrotation Yrotation Zrotation
			JOINT spine_3
			{
				OFFSET	0	206.5	19.3
				CHANNELS 3  Xrotation Yrotation Zrotation
				JOINT spine_4
				{
					OFFSET	0	110.4	14.6
					CHANNELS 3  Xrotation Yrotation Zrotation
					JOINT neck_1
					{
						OFFSET	0	71.8	-50.3
						CHANNELS 3  Xrotation Yrotation Zrotation
						JOINT neck_2
						{
							OFFSET	0	86.2	-25.8
							CHANNELS 3  Xrotation Yrotation Zrotation
							JOINT head_ee
							{
								OFFSET	0	179.8	-8.7
								CHANNELS 3  Xrotation Yrotation Zrotation
								End Site
								{
									OFFSET	1	0	0
								}
							}
						}
					}
					JOINT left_clavicle
					{
						OFFSET	-43.2	22.4	-70.8
						CHANNELS 3  Xrotation Yrotation Zrotation
						JOINT left_shoulder
						{
							OFFSET	-93.9	-5.79999	48.7
							CHANNELS 3  Xrotation Yrotation Zrotation
							JOINT left_elbow
							{
								OFFSET	-291.4	-30.8	15.2
								CHANNELS 3  Xrotation Yrotation Zrotation
								JOINT left_lowarm_twist
								{
									OFFSET	-110.7	-3.89999	13.6
									CHANNELS 3  Xrotation Yrotation Zrotation
									JOINT left_hand
									{
										OFFSET	-110.7	-3.89999	13.6
										CHANNELS 3  Xrotation Yrotation Zrotation
										JOINT left_ee
										{
											OFFSET	-80.8	-5.10001	12.1
											CHANNELS 3  Xrotation Yrotation Zrotation
											End Site
											{
												OFFSET	1	0	0
											}
										}
									}
								}
							}
						}
					}
					JOINT right_clavicle
					{
						OFFSET	43.2	22.4	-70.8
						CHANNELS 3  Xrotation Yrotation Zrotation
						JOINT right_shoulder
						{
							OFFSET	93.9	-5.79999	48.7
							CHANNELS 3  Xrotation Yrotation Zrotation
							JOINT right_elbow
							{
								OFFSET	291.4	-30.8	15.2
								CHANNELS 3  Xrotation Yrotation Zrotation
								JOINT right_lowarm_twist
								{
									OFFSET	110.7	-3.89999	13.6
									CHANNELS 3  Xrotation Yrotation Zrotation
									JOINT right_hand
									{
										OFFSET	110.7	-3.89999	13.6
										CHANNELS 3  Xrotation Yrotation Zrotation
										JOINT right_ee
										{
											OFFSET	80.8	-5.10001	12.1
											CHANNELS 3  Xrotation Yrotation Zrotation
											End Site
											{
												OFFSET	1	0	0
											}
										}
									}
								}
							}
						}
					}
				}
			}
		}
	}
	JOINT left_hip
	{
		OFFSET	-82.8	-127.5	0.300001
		CHANNELS 3  Xrotation Yrotation Zrotation
		JOINT left_knee
		{
			OFFSET	-28.2	-396.7	2.2
			CHANNELS 3  Xrotation Yrotation Zrotation
			JOINT left_ankle
			{
				OFFSET	-11.7	-411.3	35.4
				CHANNELS 3  Xrotation Yrotation Zrotation
				JOINT left_toes
				{
					OFFSET	0	-60	-88.6
					CHANNELS 3  Xrotation Yrotation Zrotation
					JOINT left_foot_ee
					{
						OFFSET	-22.5	-16.5	-42.2
						CHANNELS 3  Xrotation Yrotation Zrotation
						End Site
						{
							OFFSET	1	0	0
						}
					}
				}
			}
		}
	}
	JOINT right_hip
	{
		OFFSET	82.8	-127.5	0.300001
		CHANNELS 3  Xrotation Yrotation Zrotation
		JOINT right_knee
		{
			OFFSET	28.2	-396.7	2.2
			CHANNELS 3  Xrotation Yrotation Zrotation
			JOINT right_ankle
			{
				OFFSET	11.7	-411.3	35.4
				CHANNELS 3  Xrotation Yrotation Zrotation
				JOINT right_toes
				{
					OFFSET	0	-60	-88.6
					CHANNELS 3  Xrotation Yrotation Zrotation
					JOINT right_foot_ee
					{
						OFFSET	22.5	-16.5	-42.2
						CHANNELS 3  Xrotation Yrotation Zrotation
						End Site
						{
							OFFSET	1	0	0
						}
					}
				}
			}
		}
	}
}
MOTION
Frames: 14
Frame Time: 0.02
2519.6570974 742.258 -1508.41179452 -164.487948703 82.0947466013 161.960988777 2.98349 0.124133 1.64077 2.98499 0.0194896 1.64535 2.98507 -0.242395 1.62751 2.98138 0.017646 1.64537 -14.4238 8.74755 0.187392 -14.6497 16.5944 3.03617 -0.0 0.0 -0.0 -4.82545 21.5614 -4.40018 -16.0264 -32.1318 69.6452 0.198034 -5.60293 0.00969049 -81.3697 -7.99534 5.2592 1.24945 3.16917 9.64105 -0.0 0.0 -0.0 9.56952 -12.4138 -17.797 -13.3973 27.2248 -60.2993 2.05655 45.5269 -0.863029 78.4702 3.66333 8.52119 -4.22536 -28.2571 11.9594 0.0 0.0 0.0 12.5711 14.0811 -13.5011 -35.6952 -0.215851 5.38628 28.6391 6.0785 -3.74086 -11.5339 0.0 0.0 -0.0 0.0 -0.0 12.4011 0.581859 -2.25013 -9.97439 -0.28043 -1.50314 35.5021 -6.21913 4.44726 -32.108 0.0 0.0 0.0 0.0 0.0 
2518.21600684 742.258 -1493.44914926 -168.746304236 79.1358914868 166.275620578 2.98349 0.124133 1.64077 2.98499 0.0194896 1.64535 2.98507 -0.242395 1.62751 2.98138 0.017646 1.64537 -14.4238 8.74755 0.187392 -14.6497 16.5944 3.03617 -0.0 0.0 -0.0 -4.82545 21.5614 -4.40018 -16.0264 -32.1318 69.6452 0.198034 -5.60293 0.00969049 -81.3697 -7.99534 5.2592 1.24945 3.16917 9.64105 -0.0 0.0 -0.0 9.56952 -12.4138 -17.797 -13.3973 27.2248 -60.2993 2.05655 45.5269 -0.863029 78.4702 3.66333 8.52119 -4.22536 -28.2571 11.9594 0.0 0.0 0.0 12.5711 14.0811 -13.5011 -35.6952 -0.215851 5.38628 28.6391 6.0785 -3.74086 -11.5339 0.0 0.0 -0.0 0.0 -0.0 12.4011 0.581859 -2.25013 -9.97439 -0.28043 -1.50314 35.5021 -6.21913 4.44726 -32.108 0.0 0.0 0.0 0.0 0.0 
2508.56563364 743.252 -1492.66442239 -165.749361937 78.4941187367 163.774418643 2.8331 0.161458 1.57758 2.83448 0.0607579 1.58465 2.83579 -0.196083 1.57365 2.83234 0.0548745 1.58487 -13.493 6.47158 0.1896 -13.5974 12.2113 2.1744 -0.0 0.0 -0.0 -4.29986 20.9152 -3.79253 -18.5885 -31.6323 69.5515 0.193415 -5.47307 0.00924484 -80.1731 -7.8438 5.27738 2.49442 1.21148 17.3939 -0.0 0.0 -0.0 9.29934 -11.693 -17.3884 -11.6419 26.5225 -60.0751 2.4774 50.8174 -1.17696 80.6937 3.91876 8.64839 -2.27105 -27.5981 1.60915 0.0 0.0 0.0 15.3636 14.5087 -14.083 -25.2775 0.195793 3.84276 27.0016 0.0774941 -3.58124 -12.9168 0.0 0.0 -0.0 0.0 -0.0 12.453 -0.992685 -3.10922 -9.59909 -0.274643 -1.44584 38.3197 -9.33391 4.72169 -28.2004 0.0 0.0 0.0 0.0 0.0 
2501.97027697 745.429 -1485.62514291 -164.945746984 76.8594890018 163.171228568 2.83554 0.0749507 1.60127 2.83696 -0.0270811 1.6028 2.8358 -0.285733 1.57736 2.83233 -0.0330657 1.60269 -13.6523 5.91525 0.617133 -13.7361 10.8937 2.4215 -0.0 0.0 -0.0 -4.17209 20.8776 -3.61444 -19.4184 -31.7752 69.0087 0.203578 -5.75877 0.0102394 -79.606 -7.77183 5.28487 2.86496 0.262952 19.6318 -0.0 0.0 -0.0 9.03759 -11.872 -16.8988 -10.4508 25.6191 -60.6614 2.67041 52.9034 -1.32879 81.6551 4.03069 8.7003 -1.36512 -27.2474 -3.17749 0.0 0.0 0.0 14.6089 15.0385 -13.3119 -14.0764 0.319163 2.1312 22.653 -4.96035 -3.12022 -14.0068 0.0 0.0 -0.0 0.0 -0.0 12.3456 -1.81278 -3.27596 -9.47962 -0.272722 -1.42761 39.7222 -11.5334 4.86503 -26.0463 0.0 0.0 0.0 0.0 0.0 
2490.38636139 758.449 -1490.63188686 -161.446705884 77.2366167483 160.382801646 2.7383 0.111823 1.42981 2.73944 0.0206236 1.43403 2.73967 -0.213736 1.41816 2.73686 0.012895 1.43412 -14.4081 5.64649 1.17557 -14.4849 10.0743 2.93445 -0.0 0.0 -0.0 -3.76915 18.6357 -3.51633 -19.3884 -31.8285 69.9404 0.217354 -6.14556 0.0116679 -75.7292 -7.278 5.31683 3.6188 -3.43738 23.5543 -0.0 0.0 -0.0 8.60677 -14.2817 -15.901 -11.7014 24.2721 -59.6219 2.95453 55.646 -1.55951 84.0566 4.31392 8.8217 0.854942 -26.9595 -15.4901 0.0 0.0 0.0 15.6576 14.4235 -11.4011 -0.242915 0.00992641 0.0359561 13.0081 -18.918 -2.04491 -13.5011 0.0 0.0 -0.0 0.0 -0.0 11.5607 -1.99964 -4.08117 -9.44404 -0.272142 -1.42218 36.4803 -13.1921 4.58194 -23.7803 0.0 0.0 0.0 0.0 0.0 
2490.35544098 758.449 -1490.05242564 -161.595674107 77.1352257696 160.535574634 2.7383 0.111823 1.42981 2.73944 0.0206236 1.43403 2.73967 -0.213736 1.41816 2.73686 0.012895 1.43412 -14.4081 5.64649 1.17557 -14.4849 10.0743 2.93445 -0.0 0.0 -0.0 -3.76915 18.6357 -3.51633 -19.3884 -31.8285 69.9404 0.217354 -6.14556 0.0116679 -75.7292 -7.278 5.31683 3.6188 -3.43738 23.5543 -0.0 0.0 -0.0 8.60677 -14.2817 -15.901 -11.7014 24.2721 -59.6219 2.95453 55.646 -1.55951 84.0566 4.31392 8.8217 0.854942 -26.9595 -15.4901 0.0 0.0 0.0 15.6576 14.4235 -11.4011 -0.242915 0.00992641 0.0359561 13.0081 -18.918 -2.04491 -13.5011 0.0 0.0 -0.0 0.0 -0.0 11.5607 -1.99964 -4.08117 -9.44404 -0.272142 -1.42218 36.4803 -13.1921 4.58194 -23.7803 0.0 0.0 0.0 0.0 0.0 
2490.33892772 758.449 -1489.73432214 -161.676443221 77.0795328432 160.618432593 2.7383 0.111823 1.42981 2.73944 0.0206236 1.43403 2.73967 -0.213736 1.41816 2.73686 0.012895 1.43412 -14.4081 5.64649 1.17557 -14.4849 10.0743 2.93445 -0.0 0.0 -0.0 -3.76915 18.6357 -3.51633 -19.3884 -31.8285 69.9404 0.217354 -6.14556 0.0116679 -75.7292 -7.278 5.31683 3.6188 -3.43738 23.5543 -0.0 0.0 -0.0 8.60677 -14.2817 -15.901 -11.7014 24.2721 -59.6219 2.95453 55.646 -1.55951 84.0566 4.31392 8.8217 0.854942 -26.9595 -15.4901 0.0 0.0 0.0 15.6576 14.4235 -11.4011 -0.242915 0.00992641 0.0359561 13.0081 -18.918 -2.04491 -13.5011 0.0 0.0 -0.0 0.0 -0.0 11.5607 -1.99964 -4.08117 -9.44404 -0.272142 -1.42218 36.4803 -13.1921 4.58194 -23.7803 0.0 0.0 0.0 0.0 0.0 
2490.23295813 758.449 -1487.5184477 -162.220024145 76.6909598527 161.176567689 2.7383 0.111823 1.42981 2.73944 0.0206236 1.43403 2.73967 -0.213736 1.41816 2.73686 0.012895 1.43412 -14.4081 5.64649 1.17557 -14.4849 10.0743 2.93445 -0.0 0.0 -0.0 -3.76915 18.6357 -3.51633 -19.3884 -31.8285 69.9404 0.217354 -6.14556 0.0116679 -75.7292 -7.278 5.31683 3.6188 -3.43738 23.5543 -0.0 0.0 -0.0 8.60677 -14.2817 -15.901 -11.7014 24.2721 -59.6219 2.95453 55.646 -1.55951 84.0566 4.31392 8.8217 0.854942 -26.9595 -15.4901 0.0 0.0 0.0 15.6576 14.4235 -11.4011 -0.242915 0.00992641 0.0359561 13.0081 -18.918 -2.04491 -13.5011 0.0 0.0 -0.0 0.0 -0.0 11.5607 -1.99964 -4.08117 -9.44404 -0.272142 -1.42218 36.4803 -13.1921 4.58194 -23.7803 0.0 0.0 0.0 0.0 0.0 
2490.17884423 758.449 -1486.23554234 -162.520248663 76.4655166327 161.485221608 2.7383 0.111823 1.42981 2.73944 0.0206236 1.43403 2.73967 -0.213736 1.41816 2.73686 0.012895 1.43412 -14.4081 5.64649 1.17557 -14.4849 10.0743 2.93445 -0.0 0.0 -0.0 -3.76915 18.6357 -3.51633 -19.3884 -31.8285 69.9404 0.217354 -6.14556 0.0116679 -75.7292 -7.278 5.31683 3.6188 -3.43738 23.5543 -0.0 0.0 -0.0 8.60677 -14.2817 -15.901 -11.7014 24.2721 -59.6219 2.95453 55.646 -1.55951 84.0566 4.31392 8.8217 0.854942 -26.9595 -15.4901 0.0 0.0 0.0 15.6576 14.4235 -11.4011 -0.242915 0.00992641 0.0359561 13.0081 -18.918 -2.04491 -13.5011 0.0 0.0 -0.0 0.0 -0.0 11.5607 -1.99964 -4.08117 -9.44404 -0.272142 -1.42218 36.4803 -13.1921 4.58194 -23.7803 0.0 0.0 0.0 0.0 0.0 
2490.25492674 758.449 -1488.00625424 -162.103142829 76.7765920379 161.056481834 2.7383 0.111823 1.42981 2.73944 0.0206236 1.43403 2.73967 -0.213736 1.41816 2.73686 0.012895 1.43412 -14.4081 5.64649 1.17557 -14.4849 10.0743 2.93445 -0.0 0.0 -0.0 -3.76915 18.6357 -3.51633 -19.3884 -31.8285 69.9404 0.217354 -6.14556 0.0116679 -75.7292 -7.278 5.31683 3.6188 -3.43738 23.5543 -0.0 0.0 -0.0 8.60677 -14.2817 -15.901 -11.7014 24.2721 -59.6219 2.95453 55.646 -1.55951 84.0566 4.31392 8.8217 0.854942 -26.9595 -15.4901 0.0 0.0 0.0 15.6576 14.4235 -11.4011 -0.242915 0.00992641 0.0359561 13.0081 -18.918 -2.04491 -13.5011 0.0 0.0 -0.0 0.0 -0.0 11.5607 -1.99964 -4.08117 -9.44404 -0.272142 -1.42218 36.4803 -13.1921 4.58194 -23.7803 0.0 0.0 0.0 0.0 0.0 
2490.23517949 758.449 -1487.56855773 -162.208087881 76.6997587444 161.164302222 2.7383 0.111823 1.42981 2.73944 0.0206236 1.43403 2.73967 -0.213736 1.41816 2.73686 0.012895 1.43412 -14.4081 5.64649 1.17557 -14.4849 10.0743 2.93445 -0.0 0.0 -0.0 -3.76915 18.6357 -3.51633 -19.3884 -31.8285 69.9404 0.217354 -6.14556 0.0116679 -75.7292 -7.278 5.31683 3.6188 -3.43738 23.5543 -0.0 0.0 -0.0 8.60677 -14.2817 -15.901 -11.7014 24.2721 -59.6219 2.95453 55.646 -1.55951 84.0566 4.31392 8.8217 0.854942 -26.9595 -15.4901 0.0 0.0 0.0 15.6576 14.4235 -11.4011 -0.242915 0.00992641 0.0359561 13.0081 -18.918 -2.04491 -13.5011 0.0 0.0 -0.0 0.0 -0.0 11.5607 -1.99964 -4.08117 -9.44404 -0.272142 -1.42218 36.4803 -13.1921 4.58194 -23.7803 0.0 0.0 0.0 0.0 0.0 
2488.01845694 757.022 -1491.61387884 -159.859007396 76.9368034455 158.891400125 2.68221 0.12076 1.34692 2.68322 0.034815 1.35187 2.68381 -0.187622 1.33925 2.6813 0.0262213 1.35207 -18.4492 4.99192 -0.727052 -18.5743 9.99594 1.28271 -0.0 0.0 -0.0 -3.6463 17.8494 -3.49734 -19.3124 -31.9281 70.1123 0.222923 -6.30176 0.0122716 -74.2039 -7.08316 5.32016 4.00779 -5.89837 25.3467 -0.0 0.0 -0.0 8.48596 -15.4491 -15.5762 -11.7845 24.0167 -60.1927 3.12166 57.0982 -1.69869 85.341 4.4674 8.88173 1.50552 -27.956 -19.5498 0.0 0.0 0.0 16.3478 13.6156 -10.8238 3.48156 -0.158948 -0.510472 9.91045 -23.6823 -1.65355 -12.7634 0.0 0.0 -0.0 0.0 -0.0 12.0654 -2.00046 -3.80987 -9.77892 -0.277462 -1.47329 34.5933 -13.8144 4.40341 -22.7263 0.0 0.0 0.0 0.0 0.0 
2445.93816057 741.063 -1560.01039987 -42.7401811118 83.3500737669 41.0860549657 2.67143 0.0236039 0.729257 2.67173 -0.0228472 0.729281 2.67136 -0.142425 0.715604 2.67065 -0.0276242 0.729115 -13.3977 19.023 2.96237 -14.3305 34.4598 9.05113 -0.0 0.0 -0.0 -3.21677 6.89151 -4.97936 -9.74433 -31.7295 70.8989 0.996397 -26.2698 0.232514 -52.6272 -4.38269 4.8132 5.16709 -13.2921 30.4227 -0.0 0.0 -0.0 7.52662 -18.4559 -13.7115 -15.1334 20.0987 -60.5624 1.2897 32.5722 -0.376811 82.6387 4.14608 8.75146 0.343341 -28.3679 -13.032 0.0 0.0 0.0 14.5519 12.3508 -7.59676 0.628973 -0.0264106 -0.0929059 20.341 -28.8235 -3.42059 -2.5603 0.0 0.0 -0.0 0.0 -0.0 8.86104 -8.98686 2.0034 -13.2116 -0.31474 -1.9986 39.5415 5.28789 4.8963 -20.4964 0.0 0.0 0.0 0.0 0.0 
2444.93978927 741.063 -1555.79171987 -47.0121599765 83.8322205181 45.3848355278 2.67143 0.0236039 0.729257 2.67173 -0.0228472 0.729281 2.67136 -0.142425 0.715604 2.67065 -0.0276242 0.729115 -13.3977 19.023 2.96237 -14.3305 34.4598 9.05113 -0.0 0.0 -0.0 -3.21677 6.89151 -4.97936 -9.74433 -31.7295 70.8989 0.996397 -26.2698 0.232514 -52.6272 -4.38269 4.8132 5.16709 -13.2921 30.4227 -0.0 0.0 -0.0 7.52662 -18.4559 -13.7115 -15.1334 20.0987 -60.5624 1.2897 32.5722 -0.376811 82.6387 4.14608 8.75146 0.343341 -28.3679 -13.032 0.0 0.0 0.0 14.5519 12.3508 -7.59676 0.628973 -0.0264106 -0.0929059 20.341 -28.8235 -3.42059 -2.5603 0.0 0.0 -0.0 0.0 -0.0 8.86104 -8.98686 2.0034 -13.2116 -0.31474 -1.9986 39.5415 5.28789 4.8963 -20.4964 0.0 0.0 0.0 0.0 0.0 
